NotoSansPhoenician-Regular.ufo
<glyph name="u10900" format="2">
  <advance width="820"/>
  <unicode hex="10900"/>
  <outline>
    <contour>
      <point x="451" y="-12" type="curve"/>
      <point x="537" y="14" type="line"/>
      <point x="525" y="82"/>
      <point x="512" y="148"/>
      <point x="495" y="214" type="curve"/>
      <point x="582" y="217"/>
      <point x="676" y="221"/>
      <point x="771" y="227" type="curve"/>
      <point x="760" y="306" type="line"/>
      <point x="666" y="300"/>
      <point x="570" y="295"/>
      <point x="474" y="291" type="curve"/>
      <point x="457" y="354"/>
      <point x="437" y="417"/>
      <point x="414" y="478" type="curve"/>
      <point x="484" y="522"/>
      <point x="557" y="566"/>
      <point x="635" y="610" type="curve"/>
      <point x="599" y="683" type="line"/>
      <point x="525" y="640"/>
      <point x="455" y="596"/>
      <point x="387" y="552" type="curve"/>
      <point x="365" y="610"/>
      <point x="340" y="667"/>
      <point x="315" y="725" type="curve"/>
      <point x="235" y="687" type="line"/>
      <point x="262" y="624"/>
      <point x="287" y="563"/>
      <point x="310" y="501" type="curve"/>
      <point x="241" y="456"/>
      <point x="175" y="410"/>
      <point x="111" y="366" type="curve" smooth="yes"/>
      <point x="65" y="334"/>
      <point x="39" y="307"/>
      <point x="39" y="267" type="curve" smooth="yes"/>
      <point x="39" y="226"/>
      <point x="67" y="206"/>
      <point x="128" y="206" type="curve" smooth="yes"/>
      <point x="176" y="206"/>
      <point x="276" y="207"/>
      <point x="402" y="211" type="curve"/>
      <point x="420" y="142"/>
      <point x="436" y="68"/>
    </contour>
    <contour>
      <point x="134" y="281" type="curve"/>
      <point x="132" y="286" type="line"/>
      <point x="198" y="334"/>
      <point x="266" y="381"/>
      <point x="336" y="427" type="curve"/>
      <point x="352" y="382"/>
      <point x="367" y="335"/>
      <point x="381" y="287" type="curve"/>
      <point x="299" y="285"/>
      <point x="217" y="282"/>
    </contour>
  </outline>
</glyph>
<glyph name="u10901" format="2">
  <advance width="623"/>
  <unicode hex="10901"/>
  <outline>
    <contour>
      <point x="190" y="-11" type="line"/>
      <point x="259" y="17"/>
      <point x="316" y="44"/>
      <point x="369" y="78" type="curve" smooth="yes"/>
      <point x="427" y="115"/>
      <point x="525" y="185"/>
      <point x="525" y="265" type="curve" smooth="yes"/>
      <point x="525" y="298"/>
      <point x="517" y="337"/>
      <point x="512" y="359" type="curve" smooth="yes"/>
      <point x="488" y="464"/>
      <point x="442" y="615"/>
      <point x="418" y="677" type="curve" smooth="yes"/>
      <point x="409" y="700"/>
      <point x="395" y="719"/>
      <point x="357" y="719" type="curve" smooth="yes"/>
      <point x="321" y="719"/>
      <point x="304" y="700"/>
      <point x="279" y="678" type="curve" smooth="yes"/>
      <point x="211" y="618"/>
      <point x="144" y="543"/>
      <point x="74" y="469" type="curve" smooth="yes"/>
      <point x="54" y="448"/>
      <point x="39" y="425"/>
      <point x="39" y="402" type="curve" smooth="yes"/>
      <point x="39" y="384"/>
      <point x="44" y="357"/>
      <point x="83" y="357" type="curve" smooth="yes"/>
      <point x="147" y="357"/>
      <point x="271" y="358"/>
      <point x="417" y="369" type="curve"/>
      <point x="425" y="329"/>
      <point x="430" y="297"/>
      <point x="430" y="272" type="curve" smooth="yes"/>
      <point x="430" y="218"/>
      <point x="364" y="170"/>
      <point x="318" y="143" type="curve" smooth="yes"/>
      <point x="265" y="112"/>
      <point x="207" y="81"/>
      <point x="153" y="62" type="curve"/>
    </contour>
    <contour>
      <point x="154" y="436" type="curve"/>
      <point x="152" y="440" type="line"/>
      <point x="191" y="487"/>
      <point x="270" y="573"/>
      <point x="343" y="625" type="curve"/>
      <point x="363" y="566"/>
      <point x="381" y="506"/>
      <point x="398" y="445" type="curve"/>
      <point x="325" y="440"/>
      <point x="242" y="436"/>
      <point x="178" y="436" type="curve" smooth="yes"/>
      <point x="169" y="436"/>
      <point x="161" y="436"/>
    </contour>
  </outline>
</glyph>
<glyph name="u10902" format="2">
  <advance width="579"/>
  <unicode hex="10902"/>
  <outline>
    <contour>
      <point x="387" y="0" type="curve"/>
      <point x="481" y="21" type="line"/>
      <point x="479" y="155"/>
      <point x="466" y="271"/>
      <point x="448" y="383" type="curve" smooth="yes"/>
      <point x="430" y="492"/>
      <point x="409" y="608"/>
      <point x="377" y="687" type="curve" smooth="yes"/>
      <point x="370" y="704"/>
      <point x="360" y="720"/>
      <point x="333" y="720" type="curve" smooth="yes"/>
      <point x="314" y="720"/>
      <point x="299" y="713"/>
      <point x="284" y="703" type="curve" smooth="yes"/>
      <point x="181" y="634"/>
      <point x="96" y="557"/>
      <point x="15" y="458" type="curve"/>
      <point x="73" y="399" type="line"/>
      <point x="151" y="491"/>
      <point x="224" y="551"/>
      <point x="302" y="608" type="curve"/>
      <point x="324" y="550"/>
      <point x="340" y="448"/>
      <point x="355" y="356" type="curve" smooth="yes"/>
      <point x="372" y="249"/>
      <point x="384" y="130"/>
    </contour>
  </outline>
</glyph>
<glyph name="u10903" format="2">
  <advance width="656"/>
  <unicode hex="10903"/>
  <outline>
    <contour>
      <point x="523" y="107" type="curve"/>
      <point x="607" y="132" type="line"/>
      <point x="561" y="292"/>
      <point x="434" y="582"/>
      <point x="363" y="676" type="curve" smooth="yes"/>
      <point x="347" y="697"/>
      <point x="328" y="719"/>
      <point x="303" y="719" type="curve" smooth="yes"/>
      <point x="270" y="719"/>
      <point x="255" y="705"/>
      <point x="229" y="679" type="curve" smooth="yes"/>
      <point x="191" y="641"/>
      <point x="49" y="434"/>
      <point x="49" y="323" type="curve" smooth="yes"/>
      <point x="49" y="291"/>
      <point x="103" y="280"/>
      <point x="180" y="280" type="curve" smooth="yes"/>
      <point x="273" y="280"/>
      <point x="390" y="296"/>
      <point x="452" y="312" type="curve"/>
      <point x="481" y="239"/>
      <point x="506" y="166"/>
    </contour>
    <contour>
      <point x="203" y="359" type="curve" smooth="yes"/>
      <point x="183" y="359"/>
      <point x="166" y="360"/>
      <point x="153" y="363" type="curve"/>
      <point x="151" y="368" type="line"/>
      <point x="161" y="418"/>
      <point x="222" y="536"/>
      <point x="292" y="625" type="curve"/>
      <point x="331" y="574"/>
      <point x="378" y="483"/>
      <point x="421" y="384" type="curve"/>
      <point x="346" y="371"/>
      <point x="262" y="359"/>
    </contour>
  </outline>
</glyph>
<glyph name="u10904" format="2">
  <advance width="706"/>
  <unicode hex="10904"/>
  <outline>
    <contour>
      <point x="567" y="-12" type="curve"/>
      <point x="647" y="15" type="line"/>
      <point x="588" y="258"/>
      <point x="533" y="458"/>
      <point x="423" y="686" type="curve" smooth="yes"/>
      <point x="414" y="704"/>
      <point x="401" y="719"/>
      <point x="370" y="719" type="curve" smooth="yes"/>
      <point x="347" y="719"/>
      <point x="328" y="712"/>
      <point x="302" y="694" type="curve" smooth="yes"/>
      <point x="188" y="615"/>
      <point x="144" y="584"/>
      <point x="49" y="511" type="curve"/>
      <point x="91" y="445" type="line"/>
      <point x="174" y="506"/>
      <point x="261" y="566"/>
      <point x="358" y="625" type="curve"/>
      <point x="374" y="597"/>
      <point x="393" y="557"/>
      <point x="412" y="507" type="curve"/>
      <point x="326" y="445"/>
      <point x="234" y="384"/>
      <point x="131" y="326" type="curve"/>
      <point x="169" y="256" type="line"/>
      <point x="268" y="313"/>
      <point x="359" y="371"/>
      <point x="440" y="430" type="curve"/>
      <point x="454" y="392"/>
      <point x="468" y="350"/>
      <point x="481" y="306" type="curve"/>
      <point x="411" y="246"/>
      <point x="318" y="179"/>
      <point x="206" y="118" type="curve"/>
      <point x="244" y="48" type="line"/>
      <point x="343" y="104"/>
      <point x="431" y="163"/>
      <point x="506" y="224" type="curve"/>
      <point x="528" y="147"/>
      <point x="549" y="66"/>
    </contour>
  </outline>
</glyph>
<glyph name="u10905" format="2">
  <advance width="623"/>
  <unicode hex="10905"/>
  <outline>
    <contour>
      <point x="469" y="-8" type="curve"/>
      <point x="535" y="61" type="line"/>
      <point x="470" y="135"/>
      <point x="417" y="277"/>
      <point x="417" y="442" type="curve" smooth="yes"/>
      <point x="417" y="513"/>
      <point x="432" y="573"/>
      <point x="492" y="678" type="curve"/>
      <point x="414" y="726" type="line"/>
      <point x="363" y="598"/>
      <point x="289" y="529"/>
      <point x="190" y="529" type="curve" smooth="yes"/>
      <point x="132" y="529"/>
      <point x="112" y="568"/>
      <point x="112" y="608" type="curve" smooth="yes"/>
      <point x="112" y="636"/>
      <point x="121" y="664"/>
      <point x="133" y="682" type="curve"/>
      <point x="49" y="719" type="line"/>
      <point x="27" y="680"/>
      <point x="17" y="642"/>
      <point x="17" y="606" type="curve" smooth="yes"/>
      <point x="17" y="518"/>
      <point x="80" y="450"/>
      <point x="186" y="450" type="curve" smooth="yes"/>
      <point x="238" y="450"/>
      <point x="284" y="462"/>
      <point x="323" y="481" type="curve"/>
      <point x="322" y="465"/>
      <point x="322" y="449"/>
      <point x="322" y="437" type="curve" smooth="yes"/>
      <point x="322" y="273"/>
      <point x="377" y="83"/>
    </contour>
  </outline>
</glyph>
<glyph name="u10906" format="2">
  <advance width="649"/>
  <unicode hex="10906"/>
  <outline>
    <contour>
      <point x="321" y="-11" type="curve" smooth="yes"/>
      <point x="339" y="-11"/>
      <point x="397" y="3"/>
      <point x="424" y="11" type="curve" smooth="yes"/>
      <point x="581" y="56" type="line"/>
      <point x="566" y="132" type="line"/>
      <point x="361" y="81" type="line"/>
      <point x="354" y="121"/>
      <point x="354" y="217"/>
      <point x="354" y="325" type="curve" smooth="yes"/>
      <point x="354" y="458"/>
      <point x="375" y="642"/>
      <point x="375" y="692" type="curve" smooth="yes"/>
      <point x="375" y="712"/>
      <point x="369" y="729"/>
      <point x="349" y="729" type="curve" smooth="yes"/>
      <point x="337" y="729"/>
      <point x="304" y="724"/>
      <point x="283" y="718" type="curve" smooth="yes"/>
      <point x="72" y="658" type="line"/>
      <point x="68" y="577" type="line"/>
      <point x="278" y="633" type="line"/>
      <point x="267" y="553"/>
      <point x="260" y="363"/>
      <point x="260" y="321" type="curve" smooth="yes"/>
      <point x="260" y="224"/>
      <point x="265" y="48"/>
      <point x="273" y="26" type="curve" smooth="yes"/>
      <point x="283" y="-2"/>
      <point x="299" y="-11"/>
    </contour>
  </outline>
</glyph>
<glyph name="u10907" format="2">
  <advance width="643"/>
  <unicode hex="10907"/>
  <outline>
    <contour>
      <point x="481" y="-5" type="line"/>
      <point x="575" y="10" type="line"/>
      <point x="573" y="415"/>
      <point x="547" y="614"/>
      <point x="542" y="657" type="curve" smooth="yes"/>
      <point x="540" y="674"/>
      <point x="530" y="683"/>
      <point x="515" y="683" type="curve" smooth="yes"/>
      <point x="511" y="683"/>
      <point x="506" y="682"/>
      <point x="501" y="681" type="curve" smooth="yes"/>
      <point x="173" y="598" type="line"/>
      <point x="170" y="634"/>
      <point x="167" y="667"/>
      <point x="164" y="696" type="curve"/>
      <point x="73" y="685" type="line"/>
      <point x="88" y="501"/>
      <point x="111" y="303"/>
      <point x="111" y="77" type="curve" smooth="yes"/>
      <point x="111" y="49"/>
      <point x="121" y="38"/>
      <point x="141" y="38" type="curve" smooth="yes"/>
      <point x="147" y="38"/>
      <point x="155" y="39"/>
      <point x="164" y="41" type="curve" smooth="yes"/>
      <point x="481" y="122" type="line"/>
    </contour>
    <contour>
      <point x="202" y="133" type="line"/>
      <point x="201" y="186"/>
      <point x="200" y="236"/>
      <point x="197" y="284" type="curve"/>
      <point x="474" y="354" type="line"/>
      <point x="476" y="310"/>
      <point x="478" y="260"/>
      <point x="480" y="204" type="curve"/>
    </contour>
    <contour>
      <point x="193" y="365" type="line"/>
      <point x="189" y="420"/>
      <point x="185" y="471"/>
      <point x="181" y="517" type="curve"/>
      <point x="456" y="587" type="line"/>
      <point x="460" y="541"/>
      <point x="464" y="492"/>
      <point x="468" y="435" type="curve"/>
    </contour>
  </outline>
</glyph>
<glyph name="u10908" format="2">
  <advance width="799"/>
  <unicode hex="10908"/>
  <outline>
    <contour>
      <point x="428" y="-10" type="curve" smooth="yes"/>
      <point x="637" y="-10"/>
      <point x="735" y="120"/>
      <point x="735" y="318" type="curve" smooth="yes"/>
      <point x="735" y="551"/>
      <point x="620" y="725"/>
      <point x="379" y="725" type="curve" smooth="yes"/>
      <point x="178" y="725"/>
      <point x="73" y="597"/>
      <point x="73" y="397" type="curve" smooth="yes"/>
      <point x="73" y="150"/>
      <point x="198" y="-10"/>
    </contour>
    <contour>
      <point x="423" y="69" type="curve" smooth="yes"/>
      <point x="246" y="69"/>
      <point x="168" y="206"/>
      <point x="168" y="396" type="curve" smooth="yes"/>
      <point x="168" y="553"/>
      <point x="235" y="646"/>
      <point x="384" y="646" type="curve" smooth="yes"/>
      <point x="562" y="646"/>
      <point x="641" y="511"/>
      <point x="641" y="319" type="curve" smooth="yes"/>
      <point x="641" y="163"/>
      <point x="572" y="69"/>
    </contour>
    <contour>
      <point x="362" y="174" type="curve"/>
      <point x="452" y="182" type="line"/>
      <point x="452" y="229"/>
      <point x="451" y="276"/>
      <point x="449" y="323" type="curve"/>
      <point x="498" y="329"/>
      <point x="544" y="337"/>
      <point x="593" y="348" type="curve"/>
      <point x="584" y="425" type="line"/>
      <point x="542" y="417"/>
      <point x="496" y="409"/>
      <point x="444" y="403" type="curve"/>
      <point x="441" y="453"/>
      <point x="436" y="502"/>
      <point x="431" y="552" type="curve"/>
      <point x="343" y="540" type="line"/>
      <point x="348" y="491"/>
      <point x="352" y="443"/>
      <point x="354" y="395" type="curve"/>
      <point x="321" y="393"/>
      <point x="286" y="392"/>
      <point x="249" y="392" type="curve" smooth="yes"/>
      <point x="237" y="392"/>
      <point x="225" y="393"/>
      <point x="213" y="393" type="curve"/>
      <point x="218" y="314" type="line"/>
      <point x="226" y="314"/>
      <point x="249" y="313"/>
      <point x="257" y="313" type="curve" smooth="yes"/>
      <point x="293" y="313"/>
      <point x="327" y="314"/>
      <point x="358" y="316" type="curve"/>
      <point x="360" y="269"/>
      <point x="362" y="222"/>
    </contour>
  </outline>
</glyph>
<glyph name="u10909" format="2">
  <advance width="608"/>
  <unicode hex="10909"/>
  <outline>
    <contour>
      <point x="222" y="99" type="curve" smooth="yes"/>
      <point x="232" y="99"/>
      <point x="244" y="101"/>
      <point x="258" y="105" type="curve" smooth="yes"/>
      <point x="377" y="139"/>
      <point x="451" y="160"/>
      <point x="549" y="171" type="curve"/>
      <point x="531" y="250" type="line"/>
      <point x="431" y="235"/>
      <point x="367" y="223"/>
      <point x="277" y="195" type="curve"/>
      <point x="314" y="333"/>
      <point x="370" y="475"/>
      <point x="435" y="638" type="curve" smooth="yes"/>
      <point x="441" y="653"/>
      <point x="444" y="667"/>
      <point x="444" y="679" type="curve" smooth="yes"/>
      <point x="444" y="718"/>
      <point x="421" y="728"/>
      <point x="396" y="728" type="curve" smooth="yes"/>
      <point x="387" y="728"/>
      <point x="376" y="726"/>
      <point x="365" y="724" type="curve" smooth="yes"/>
      <point x="65" y="662" type="line"/>
      <point x="59" y="574" type="line"/>
      <point x="336" y="633" type="line"/>
      <point x="313" y="579"/>
      <point x="291" y="518"/>
      <point x="269" y="458" type="curve"/>
      <point x="207" y="448"/>
      <point x="141" y="431"/>
      <point x="73" y="407" type="curve"/>
      <point x="63" y="329" type="line"/>
      <point x="123" y="348"/>
      <point x="182" y="363"/>
      <point x="240" y="374" type="curve"/>
      <point x="206" y="273"/>
      <point x="179" y="183"/>
      <point x="173" y="139" type="curve"/>
      <point x="179" y="112"/>
      <point x="195" y="99"/>
    </contour>
  </outline>
</glyph>
<glyph name="u1090A" format="2">
  <advance width="588"/>
  <unicode hex="1090A"/>
  <outline>
    <contour>
      <point x="341" y="-12" type="line"/>
      <point x="398" y="227"/>
      <point x="478" y="462"/>
      <point x="568" y="696" type="curve"/>
      <point x="483" y="724" type="line"/>
      <point x="457" y="659"/>
      <point x="429" y="584"/>
      <point x="401" y="507" type="curve"/>
      <point x="329" y="578"/>
      <point x="222" y="664"/>
      <point x="126" y="724" type="curve"/>
      <point x="72" y="663" type="line"/>
      <point x="167" y="603"/>
      <point x="284" y="504"/>
      <point x="370" y="418" type="curve"/>
      <point x="264" y="383"/>
      <point x="157" y="340"/>
      <point x="49" y="292" type="curve"/>
      <point x="77" y="218" type="line"/>
      <point x="163" y="257"/>
      <point x="250" y="293"/>
      <point x="339" y="324" type="curve"/>
      <point x="303" y="212"/>
      <point x="272" y="104"/>
      <point x="256" y="17" type="curve"/>
    </contour>
  </outline>
</glyph>
<glyph name="u1090B" format="2">
  <advance width="528"/>
  <unicode hex="1090B"/>
  <outline>
    <contour>
      <point x="110" y="-7" type="curve" smooth="yes"/>
      <point x="203" y="-7"/>
      <point x="347" y="13"/>
      <point x="469" y="53" type="curve"/>
      <point x="452" y="134" type="line"/>
      <point x="336" y="99"/>
      <point x="234" y="83"/>
      <point x="137" y="77" type="curve"/>
      <point x="154" y="159"/>
      <point x="351" y="563"/>
      <point x="399" y="649" type="curve"/>
      <point x="319" y="687" type="line"/>
      <point x="208" y="479"/>
      <point x="87" y="211"/>
      <point x="62" y="127" type="curve" smooth="yes"/>
      <point x="52" y="93"/>
      <point x="39" y="61"/>
      <point x="39" y="41" type="curve" smooth="yes"/>
      <point x="39" y="4"/>
      <point x="82" y="-7"/>
    </contour>
  </outline>
</glyph>
<glyph name="u1090C" format="2">
  <advance width="762"/>
  <unicode hex="1090C"/>
  <outline>
    <contour>
      <point x="275" y="-55" type="line"/>
      <point x="450" y="94"/>
      <point x="694" y="410"/>
      <point x="694" y="634" type="curve" smooth="yes"/>
      <point x="694" y="694"/>
      <point x="653" y="708"/>
      <point x="631" y="708" type="curve" smooth="yes"/>
      <point x="607" y="708"/>
      <point x="594" y="704"/>
      <point x="571" y="682" type="curve" smooth="yes"/>
      <point x="435" y="557" type="line"/>
      <point x="359" y="653" type="line" smooth="yes"/>
      <point x="347" y="668"/>
      <point x="335" y="681"/>
      <point x="318" y="681" type="curve" smooth="yes"/>
      <point x="305" y="681"/>
      <point x="294" y="677"/>
      <point x="275" y="655" type="curve" smooth="yes"/>
      <point x="192" y="557" type="line"/>
      <point x="106" y="727" type="line"/>
      <point x="29" y="683" type="line"/>
      <point x="122" y="498" type="line" smooth="yes"/>
      <point x="137" y="467"/>
      <point x="158" y="455"/>
      <point x="178" y="455" type="curve" smooth="yes"/>
      <point x="197" y="455"/>
      <point x="216" y="465"/>
      <point x="232" y="483" type="curve" smooth="yes"/>
      <point x="311" y="567" type="line"/>
      <point x="360" y="507" type="line" smooth="yes"/>
      <point x="386" y="475"/>
      <point x="398" y="466"/>
      <point x="425" y="466" type="curve" smooth="yes"/>
      <point x="471" y="466"/>
      <point x="507" y="500"/>
      <point x="540" y="532" type="curve" smooth="yes"/>
      <point x="603" y="592" type="line"/>
      <point x="583" y="446"/>
      <point x="395" y="164"/>
      <point x="220" y="7" type="curve"/>
    </contour>
  </outline>
</glyph>
<glyph name="u1090D" format="2">
  <advance width="527"/>
  <unicode hex="1090D"/>
  <outline>
    <contour>
      <point x="205" y="-18" type="line"/>
      <point x="334" y="146"/>
      <point x="458" y="426"/>
      <point x="458" y="605" type="curve" smooth="yes"/>
      <point x="458" y="633"/>
      <point x="431" y="658"/>
      <point x="397" y="658" type="curve" smooth="yes"/>
      <point x="371" y="658"/>
      <point x="350" y="643"/>
      <point x="329" y="626" type="curve" smooth="yes"/>
      <point x="200" y="521" type="line"/>
      <point x="117" y="721" type="line"/>
      <point x="39" y="682" type="line"/>
      <point x="125" y="462" type="line" smooth="yes"/>
      <point x="132" y="445"/>
      <point x="146" y="422"/>
      <point x="175" y="422" type="curve" smooth="yes"/>
      <point x="192" y="422"/>
      <point x="218" y="430"/>
      <point x="238" y="446" type="curve" smooth="yes"/>
      <point x="358" y="543" type="line"/>
      <point x="333" y="356"/>
      <point x="216" y="144"/>
      <point x="132" y="33" type="curve"/>
    </contour>
  </outline>
</glyph>
<glyph name="u1090E" format="2">
  <advance width="627"/>
  <unicode hex="1090E"/>
  <outline>
    <contour>
      <point x="398" y="-5" type="line"/>
      <point x="397" y="83"/>
      <point x="393" y="185"/>
      <point x="384" y="285" type="curve"/>
      <point x="441" y="289"/>
      <point x="498" y="292"/>
      <point x="551" y="292" type="curve"/>
      <point x="559" y="372" type="line"/>
      <point x="497" y="371"/>
      <point x="436" y="368"/>
      <point x="376" y="363" type="curve"/>
      <point x="372" y="398"/>
      <point x="368" y="432"/>
      <point x="364" y="464" type="curve"/>
      <point x="418" y="469"/>
      <point x="473" y="473"/>
      <point x="523" y="474" type="curve"/>
      <point x="529" y="554" type="line"/>
      <point x="469" y="551"/>
      <point x="410" y="547"/>
      <point x="352" y="542" type="curve"/>
      <point x="346" y="576"/>
      <point x="339" y="607"/>
      <point x="333" y="634" type="curve"/>
      <point x="395" y="639"/>
      <point x="457" y="641"/>
      <point x="510" y="641" type="curve"/>
      <point x="518" y="721" type="line"/>
      <point x="364" y="719"/>
      <point x="214" y="703"/>
      <point x="76" y="683" type="curve"/>
      <point x="68" y="602" type="line"/>
      <point x="111" y="611"/>
      <point x="171" y="619"/>
      <point x="236" y="626" type="curve"/>
      <point x="243" y="598"/>
      <point x="250" y="566"/>
      <point x="256" y="532" type="curve"/>
      <point x="199" y="525"/>
      <point x="144" y="517"/>
      <point x="90" y="508" type="curve"/>
      <point x="84" y="427" type="line"/>
      <point x="144" y="437"/>
      <point x="206" y="446"/>
      <point x="269" y="454" type="curve"/>
      <point x="273" y="422"/>
      <point x="278" y="389"/>
      <point x="282" y="355" type="curve"/>
      <point x="226" y="350"/>
      <point x="171" y="343"/>
      <point x="118" y="335" type="curve"/>
      <point x="110" y="254" type="line"/>
      <point x="168" y="262"/>
      <point x="229" y="270"/>
      <point x="290" y="276" type="curve"/>
      <point x="298" y="188"/>
      <point x="304" y="95"/>
      <point x="304" y="4" type="curve"/>
    </contour>
  </outline>
</glyph>
<glyph name="u1090F" format="2">
  <advance width="729"/>
  <unicode hex="1090F"/>
  <outline>
    <contour>
      <point x="346" y="230" type="curve" smooth="yes"/>
      <point x="572" y="230"/>
      <point x="650" y="366"/>
      <point x="650" y="482" type="curve" smooth="yes"/>
      <point x="650" y="584"/>
      <point x="577" y="725"/>
      <point x="381" y="725" type="curve" smooth="yes"/>
      <point x="197" y="725"/>
      <point x="78" y="617"/>
      <point x="78" y="476" type="curve" smooth="yes"/>
      <point x="78" y="334"/>
      <point x="169" y="230"/>
    </contour>
    <contour>
      <point x="353" y="310" type="curve" smooth="yes"/>
      <point x="229" y="310"/>
      <point x="173" y="383"/>
      <point x="173" y="480" type="curve" smooth="yes"/>
      <point x="173" y="568"/>
      <point x="240" y="646"/>
      <point x="378" y="646" type="curve" smooth="yes"/>
      <point x="492" y="646"/>
      <point x="556" y="559"/>
      <point x="556" y="482" type="curve" smooth="yes"/>
      <point x="556" y="394"/>
      <point x="500" y="310"/>
    </contour>
  </outline>
</glyph>
<glyph name="u10910" format="2">
  <advance width="550"/>
  <unicode hex="10910"/>
  <outline>
    <contour>
      <point x="307" y="-12" type="line"/>
      <point x="396" y="164"/>
      <point x="477" y="388"/>
      <point x="477" y="538" type="curve" smooth="yes"/>
      <point x="477" y="685"/>
      <point x="376" y="725"/>
      <point x="287" y="725" type="curve" smooth="yes"/>
      <point x="150" y="725"/>
      <point x="79" y="655"/>
      <point x="49" y="550" type="curve"/>
      <point x="138" y="534" type="line"/>
      <point x="154" y="590"/>
      <point x="189" y="646"/>
      <point x="277" y="646" type="curve" smooth="yes"/>
      <point x="326" y="646"/>
      <point x="382" y="620"/>
      <point x="382" y="544" type="curve" smooth="yes"/>
      <point x="382" y="378"/>
      <point x="286" y="153"/>
      <point x="221" y="14" type="curve"/>
    </contour>
  </outline>
</glyph>
<glyph name="u10911" format="2">
  <advance width="762"/>
  <unicode hex="10911"/>
  <outline>
    <contour>
      <point x="378" y="-4" type="curve"/>
      <point x="448" y="55" type="line"/>
      <point x="367" y="194"/>
      <point x="294" y="334"/>
      <point x="233" y="469" type="curve"/>
      <point x="265" y="515"/>
      <point x="313" y="572"/>
      <point x="375" y="608" type="curve"/>
      <point x="431" y="511" type="line" smooth="yes"/>
      <point x="454" y="471"/>
      <point x="491" y="449"/>
      <point x="522" y="449" type="curve" smooth="yes"/>
      <point x="592" y="449"/>
      <point x="647" y="508"/>
      <point x="713" y="634" type="curve"/>
      <point x="640" y="667" type="line"/>
      <point x="611" y="603"/>
      <point x="567" y="532"/>
      <point x="530" y="532" type="curve" smooth="yes"/>
      <point x="517" y="532"/>
      <point x="505" y="540"/>
      <point x="495" y="559" type="curve" smooth="yes"/>
      <point x="463" y="618" type="line" smooth="yes"/>
      <point x="449" y="644"/>
      <point x="428" y="694"/>
      <point x="389" y="694" type="curve" smooth="yes"/>
      <point x="336" y="694"/>
      <point x="248" y="627"/>
      <point x="196" y="554" type="curve"/>
      <point x="169" y="617"/>
      <point x="146" y="678"/>
      <point x="126" y="738" type="curve"/>
      <point x="39" y="709" type="line"/>
      <point x="127" y="451"/>
      <point x="248" y="218"/>
    </contour>
  </outline>
</glyph>
<glyph name="u10912" format="2">
  <advance width="674"/>
  <unicode hex="10912"/>
  <outline>
    <contour>
      <point x="263" y="0" type="curve"/>
      <point x="355" y="0" type="line"/>
      <point x="352" y="51"/>
      <point x="349" y="115"/>
      <point x="349" y="167" type="curve" smooth="yes"/>
      <point x="349" y="193"/>
      <point x="349" y="220"/>
      <point x="351" y="248" type="curve"/>
      <point x="507" y="259"/>
      <point x="615" y="343"/>
      <point x="615" y="486" type="curve" smooth="yes"/>
      <point x="615" y="629"/>
      <point x="501" y="725"/>
      <point x="356" y="725" type="curve" smooth="yes"/>
      <point x="208" y="725"/>
      <point x="59" y="629"/>
      <point x="59" y="481" type="curve" smooth="yes"/>
      <point x="59" y="348"/>
      <point x="142" y="268"/>
      <point x="259" y="250" type="curve"/>
      <point x="258" y="219"/>
      <point x="257" y="189"/>
      <point x="257" y="161" type="curve" smooth="yes"/>
      <point x="257" y="109"/>
      <point x="260" y="48"/>
    </contour>
    <contour>
      <point x="265" y="330" type="curve"/>
      <point x="196" y="344"/>
      <point x="150" y="389"/>
      <point x="150" y="472" type="curve" smooth="yes"/>
      <point x="150" y="568"/>
      <point x="227" y="627"/>
      <point x="311" y="642" type="curve"/>
      <point x="293" y="559"/>
      <point x="275" y="443"/>
    </contour>
    <contour>
      <point x="356" y="328" type="curve"/>
      <point x="367" y="444"/>
      <point x="386" y="562"/>
      <point x="401" y="640" type="curve"/>
      <point x="473" y="622"/>
      <point x="523" y="564"/>
      <point x="523" y="480" type="curve" smooth="yes"/>
      <point x="523" y="383"/>
      <point x="442" y="338"/>
    </contour>
  </outline>
</glyph>
<glyph name="u10913" format="2">
  <advance width="608"/>
  <unicode hex="10913"/>
  <outline>
    <contour>
      <point x="523" y="-111" type="curve"/>
      <point x="608" y="-79" type="line"/>
      <point x="521" y="114"/>
      <point x="427" y="445"/>
      <point x="379" y="665" type="curve" smooth="yes"/>
      <point x="368" y="715"/>
      <point x="359" y="722"/>
      <point x="332" y="722" type="curve" smooth="yes"/>
      <point x="238" y="722"/>
      <point x="50" y="502"/>
      <point x="49" y="407" type="curve" smooth="yes"/>
      <point x="49" y="376"/>
      <point x="110" y="364"/>
      <point x="182" y="358" type="curve" smooth="yes"/>
      <point x="208" y="356"/>
      <point x="235" y="355"/>
      <point x="261" y="355" type="curve" smooth="yes"/>
      <point x="299" y="355"/>
      <point x="336" y="358"/>
      <point x="363" y="363" type="curve"/>
      <point x="414" y="184"/>
      <point x="480" y="-1"/>
    </contour>
    <contour>
      <point x="252" y="436" type="curve" smooth="yes"/>
      <point x="215" y="436"/>
      <point x="178" y="438"/>
      <point x="148" y="445" type="curve"/>
      <point x="146" y="450" type="line"/>
      <point x="179" y="524"/>
      <point x="277" y="613"/>
      <point x="302" y="625" type="curve"/>
      <point x="311" y="569"/>
      <point x="325" y="507"/>
      <point x="341" y="442" type="curve"/>
      <point x="316" y="438"/>
      <point x="285" y="436"/>
    </contour>
  </outline>
</glyph>
<glyph name="u10914" format="2">
  <advance width="751"/>
  <unicode hex="10914"/>
  <outline>
    <contour>
      <point x="500" y="213" type="curve" smooth="yes"/>
      <point x="519" y="213"/>
      <point x="535" y="218"/>
      <point x="551" y="241" type="curve" smooth="yes"/>
      <point x="588" y="294"/>
      <point x="667" y="511"/>
      <point x="688" y="612" type="curve"/>
      <point x="601" y="638" type="line"/>
      <point x="582" y="559"/>
      <point x="545" y="424"/>
      <point x="504" y="346" type="curve"/>
      <point x="471" y="435"/>
      <point x="437" y="622"/>
      <point x="424" y="689" type="curve" smooth="yes"/>
      <point x="419" y="715"/>
      <point x="407" y="734"/>
      <point x="379" y="734" type="curve" smooth="yes"/>
      <point x="341" y="734"/>
      <point x="258" y="572"/>
      <point x="199" y="432" type="curve"/>
      <point x="169" y="488"/>
      <point x="130" y="641"/>
      <point x="112" y="713" type="curve"/>
      <point x="29" y="688" type="line"/>
      <point x="48" y="604"/>
      <point x="89" y="430"/>
      <point x="146" y="344" type="curve" smooth="yes"/>
      <point x="160" y="323"/>
      <point x="180" y="320"/>
      <point x="199" y="320" type="curve" smooth="yes"/>
      <point x="227" y="320"/>
      <point x="243" y="335"/>
      <point x="255" y="356" type="curve" smooth="yes"/>
      <point x="265" y="373"/>
      <point x="324" y="530"/>
      <point x="362" y="567" type="curve"/>
      <point x="373" y="484"/>
      <point x="419" y="305"/>
      <point x="456" y="235" type="curve" smooth="yes"/>
      <point x="464" y="220"/>
      <point x="482" y="213"/>
    </contour>
  </outline>
</glyph>
<glyph name="u10915" format="2">
  <advance width="738"/>
  <unicode hex="10915"/>
  <outline>
    <contour>
      <point x="338" y="26" type="line"/>
      <point x="350" y="166"/>
      <point x="366" y="267"/>
      <point x="387" y="361" type="curve"/>
      <point x="480" y="368"/>
      <point x="570" y="373"/>
      <point x="634" y="375" type="curve"/>
      <point x="640" y="455" type="line"/>
      <point x="574" y="452"/>
      <point x="492" y="448"/>
      <point x="408" y="442" type="curve"/>
      <point x="426" y="511"/>
      <point x="448" y="581"/>
      <point x="475" y="665" type="curve"/>
      <point x="390" y="690" type="line"/>
      <point x="358" y="597"/>
      <point x="332" y="515"/>
      <point x="311" y="435" type="curve"/>
      <point x="233" y="428"/>
      <point x="159" y="419"/>
      <point x="104" y="411" type="curve"/>
      <point x="98" y="330" type="line"/>
      <point x="150" y="338"/>
      <point x="219" y="346"/>
      <point x="291" y="353" type="curve"/>
      <point x="270" y="256"/>
      <point x="255" y="156"/>
      <point x="247" y="38" type="curve"/>
    </contour>
  </outline>
</glyph>
<glyph name="u10916" format="2">
  <advance width="401"/>
  <unicode hex="10916"/>
  <outline>
    <contour>
      <point x="197" y="-11" type="line"/>
      <point x="243" y="210"/>
      <point x="292" y="500"/>
      <point x="304" y="708" type="curve"/>
      <point x="213" y="721" type="line"/>
      <point x="193" y="469"/>
      <point x="153" y="229"/>
      <point x="107" y="14" type="curve"/>
    </contour>
  </outline>
</glyph>
<glyph name="u10917" format="2">
  <advance width="676"/>
  <unicode hex="10917"/>
  <outline>
    <contour>
      <point x="584" y="185" type="line"/>
      <point x="625" y="221"/>
      <point x="646" y="274"/>
      <point x="646" y="328" type="curve" smooth="yes"/>
      <point x="646" y="411"/>
      <point x="597" y="440"/>
      <point x="543" y="440" type="curve" smooth="yes"/>
      <point x="412" y="440"/>
      <point x="260" y="436"/>
      <point x="56" y="426" type="curve"/>
      <point x="45" y="341" type="line"/>
      <point x="218" y="350"/>
      <point x="464" y="359"/>
      <point x="501" y="359" type="curve" smooth="yes"/>
      <point x="537" y="359"/>
      <point x="551" y="351"/>
      <point x="551" y="323" type="curve" smooth="yes"/>
      <point x="551" y="294"/>
      <point x="536" y="271"/>
      <point x="519" y="255" type="curve"/>
    </contour>
  </outline>
</glyph>
<glyph name="u10918" format="2">
  <advance width="529"/>
  <unicode hex="10918"/>
  <outline>
    <contour>
      <point x="217" y="89" type="line"/>
      <point x="359" y="226"/>
      <point x="461" y="396"/>
      <point x="461" y="461" type="curve" smooth="yes"/>
      <point x="461" y="488"/>
      <point x="446" y="511"/>
      <point x="419" y="511" type="curve" smooth="yes"/>
      <point x="409" y="511"/>
      <point x="397" y="509"/>
      <point x="383" y="505" type="curve" smooth="yes"/>
      <point x="311" y="484"/>
      <point x="244" y="458"/>
      <point x="195" y="456" type="curve"/>
      <point x="227" y="523"/>
      <point x="353" y="641"/>
      <point x="353" y="678" type="curve" smooth="yes"/>
      <point x="353" y="723"/>
      <point x="300" y="725"/>
      <point x="244" y="725" type="curve" smooth="yes"/>
      <point x="174" y="725"/>
      <point x="66" y="706"/>
      <point x="42" y="703" type="curve"/>
      <point x="49" y="624" type="line"/>
      <point x="99" y="633"/>
      <point x="163" y="644"/>
      <point x="213" y="644" type="curve" smooth="yes"/>
      <point x="223" y="644"/>
      <point x="232" y="644"/>
      <point x="241" y="643" type="curve"/>
      <point x="219" y="622"/>
      <point x="157" y="549"/>
      <point x="125" y="499" type="curve" smooth="yes"/>
      <point x="107" y="471"/>
      <point x="93" y="444"/>
      <point x="93" y="433" type="curve" smooth="yes"/>
      <point x="93" y="395"/>
      <point x="104" y="375"/>
      <point x="149" y="375" type="curve" smooth="yes"/>
      <point x="208" y="375"/>
      <point x="299" y="396"/>
      <point x="359" y="415" type="curve"/>
      <point x="310" y="306"/>
      <point x="207" y="195"/>
      <point x="161" y="150" type="curve"/>
    </contour>
  </outline>
</glyph>
<glyph name="u10919" format="2">
  <advance width="710"/>
  <unicode hex="10919"/>
  <outline>
    <contour>
      <point x="527" y="17" type="curve"/>
      <point x="612" y="55" type="line"/>
      <point x="571" y="190"/>
      <point x="517" y="337"/>
      <point x="457" y="470" type="curve"/>
      <point x="491" y="542"/>
      <point x="524" y="604"/>
      <point x="562" y="657" type="curve"/>
      <point x="489" y="707" type="line"/>
      <point x="458" y="665"/>
      <point x="432" y="621"/>
      <point x="407" y="573" type="curve"/>
      <point x="383" y="621"/>
      <point x="358" y="665"/>
      <point x="333" y="698" type="curve" smooth="yes"/>
      <point x="324" y="710"/>
      <point x="313" y="721"/>
      <point x="296" y="721" type="curve" smooth="yes"/>
      <point x="272" y="721"/>
      <point x="253" y="706"/>
      <point x="239" y="690" type="curve" smooth="yes"/>
      <point x="153" y="594"/>
      <point x="73" y="461"/>
      <point x="20" y="345" type="curve"/>
      <point x="90" y="302" type="line"/>
      <point x="144" y="411"/>
      <point x="219" y="528"/>
      <point x="280" y="604" type="curve"/>
      <point x="379" y="429"/>
      <point x="462" y="228"/>
    </contour>
  </outline>
</glyph>
<glyph name="two_ph" format="2">
  <advance width="602"/>
  <unicode hex="1091A"/>
  <outline>
    <contour>
      <point x="197" y="-11" type="line"/>
      <point x="243" y="210"/>
      <point x="292" y="500"/>
      <point x="304" y="708" type="curve"/>
      <point x="213" y="721" type="line"/>
      <point x="193" y="469"/>
      <point x="153" y="229"/>
      <point x="107" y="14" type="curve"/>
    </contour>
    <contour>
      <point x="397" y="-11" type="line"/>
      <point x="443" y="210"/>
      <point x="492" y="500"/>
      <point x="504" y="708" type="curve"/>
      <point x="413" y="721" type="line"/>
      <point x="394" y="469"/>
      <point x="353" y="229"/>
      <point x="308" y="14" type="curve"/>
    </contour>
  </outline>
</glyph>
<glyph name="three_ph" format="2">
  <advance width="782"/>
  <unicode hex="1091B"/>
  <outline>
    <contour>
      <point x="578" y="-11" type="line"/>
      <point x="624" y="210"/>
      <point x="673" y="500"/>
      <point x="685" y="708" type="curve"/>
      <point x="594" y="721" type="line"/>
      <point x="574" y="469"/>
      <point x="534" y="229"/>
      <point x="488" y="14" type="curve"/>
    </contour>
    <contour>
      <point x="197" y="-11" type="line"/>
      <point x="243" y="210"/>
      <point x="292" y="500"/>
      <point x="304" y="708" type="curve"/>
      <point x="213" y="721" type="line"/>
      <point x="193" y="469"/>
      <point x="153" y="229"/>
      <point x="107" y="14" type="curve"/>
    </contour>
    <contour>
      <point x="388" y="-11" type="line"/>
      <point x="434" y="210"/>
      <point x="482" y="500"/>
      <point x="494" y="708" type="curve"/>
      <point x="403" y="721" type="line"/>
      <point x="384" y="469"/>
      <point x="343" y="229"/>
      <point x="298" y="14" type="curve"/>
    </contour>
  </outline>
</glyph>
<glyph name="u1091F" format="2">
  <advance width="248"/>
  <unicode hex="1091F"/>
  <outline>
    <contour>
      <point x="120" y="306" type="curve" smooth="yes"/>
      <point x="162" y="306"/>
      <point x="199" y="342"/>
      <point x="199" y="385" type="curve" smooth="yes"/>
      <point x="199" y="425"/>
      <point x="168" y="457"/>
      <point x="128" y="457" type="curve" smooth="yes"/>
      <point x="83" y="457"/>
      <point x="49" y="417"/>
      <point x="49" y="377" type="curve" smooth="yes"/>
      <point x="49" y="337"/>
      <point x="80" y="306"/>
    </contour>
  </outline>
</glyph>
